# Blender v2.79 (sub 0) OBJ File: ''
# www.blender.org
o torso
v 4.000000 12.000000 2.000001
v 4.000000 24.000000 2.000003
v -4.000000 24.000000 2.000003
v -4.000000 12.000000 2.000001
v 4.000000 12.000000 -1.999999
v -4.000000 12.000000 -1.999999
v -4.000000 24.000000 -1.999997
v 4.000000 24.000000 -1.999997
vn 0.0000 -0.0000 1.0000
vn 0.0000 0.0000 -1.0000
vn 1.0000 0.0000 0.0000
vn 0.0000 1.0000 0.0000
vn -1.0000 0.0000 0.0000
vn 0.0000 -1.0000 0.0000
s 1
f 1//1 2//1 3//1 4//1
f 5//2 6//2 7//2 8//2
f 1//3 5//3 8//3 2//3
f 2//4 8//4 7//4 3//4
f 3//5 7//5 6//5 4//5
f 5//6 1//6 4//6 6//6
o left_leg
v 0.000000 -0.000000 2.000000
v 0.000000 12.000000 2.000001
v -4.000000 12.000000 2.000001
v -4.000000 -0.000000 2.000000
v 0.000000 0.000000 -2.000000
v -4.000000 0.000000 -2.000000
v -4.000000 12.000000 -1.999999
v 0.000000 12.000000 -1.999999
vn 0.0000 -0.0000 1.0000
vn 0.0000 0.0000 -1.0000
vn 1.0000 0.0000 0.0000
vn 0.0000 1.0000 0.0000
vn -1.0000 0.0000 0.0000
vn 0.0000 -1.0000 -0.0000
s 1
f 9//7 10//7 11//7 12//7
f 13//8 14//8 15//8 16//8
f 9//9 13//9 16//9 10//9
f 10//10 16//10 15//10 11//10
f 11//11 15//11 14//11 12//11
f 13//12 9//12 12//12 14//12
o right_leg
v 4.000000 -0.000000 2.000000
v 4.000000 12.000000 2.000001
v 0.000000 12.000000 2.000001
v 0.000000 -0.000000 2.000000
v 4.000000 0.000000 -2.000000
v 0.000000 0.000000 -2.000000
v 0.000000 12.000000 -1.999999
v 4.000000 12.000000 -1.999999
vn 0.0000 -0.0000 1.0000
vn 0.0000 0.0000 -1.0000
vn 1.0000 0.0000 0.0000
vn 0.0000 1.0000 0.0000
vn -1.0000 0.0000 0.0000
vn 0.0000 -1.0000 -0.0000
s 1
f 17//13 18//13 19//13 20//13
f 21//14 22//14 23//14 24//14
f 17//15 21//15 24//15 18//15
f 18//16 24//16 23//16 19//16
f 19//17 23//17 22//17 20//17
f 21//18 17//18 20//18 22//18
o right_arm
v 8.000000 12.000000 2.000001
v 8.000000 24.000000 2.000003
v 4.000000 24.000000 2.000003
v 4.000000 12.000000 2.000001
v 8.000000 12.000000 -1.999999
v 4.000000 12.000000 -1.999999
v 4.000000 24.000000 -1.999997
v 8.000000 24.000000 -1.999997
vn 0.0000 -0.0000 1.0000
vn 0.0000 0.0000 -1.0000
vn 1.0000 0.0000 0.0000
vn 0.0000 1.0000 0.0000
vn -1.0000 0.0000 0.0000
vn 0.0000 -1.0000 0.0000
s 1
f 25//19 26//19 27//19 28//19
f 29//20 30//20 31//20 32//20
f 25//21 29//21 32//21 26//21
f 26//22 32//22 31//22 27//22
f 27//23 31//23 30//23 28//23
f 29//24 25//24 28//24 30//24
o left_arm
v -4.000000 12.000000 2.000001
v -4.000000 24.000000 2.000003
v -8.000000 24.000000 2.000003
v -8.000000 12.000000 2.000001
v -4.000000 12.000000 -1.999999
v -8.000000 12.000000 -1.999999
v -8.000000 24.000000 -1.999997
v -4.000000 24.000000 -1.999997
vn 0.0000 -0.0000 1.0000
vn 0.0000 0.0000 -1.0000
vn 1.0000 0.0000 0.0000
vn 0.0000 1.0000 0.0000
vn -1.0000 0.0000 0.0000
vn 0.0000 -1.0000 0.0000
s 1
f 33//25 34//25 35//25 36//25
f 37//26 38//26 39//26 40//26
f 33//27 37//27 40//27 34//27
f 34//28 40//28 39//28 35//28
f 35//29 39//29 38//29 36//29
f 37//30 33//30 36//30 38//30
o head
v 4.000000 24.000000 4.000003
v 4.000000 32.000000 4.000004
v -4.000000 32.000000 4.000004
v -4.000000 24.000000 4.000003
v 4.000000 24.000000 -3.999997
v -4.000000 24.000000 -3.999997
v -4.000000 32.000000 -3.999996
v 4.000000 32.000000 -3.999996
vn 0.0000 -0.0000 1.0000
vn 0.0000 0.0000 -1.0000
vn 1.0000 0.0000 0.0000
vn 0.0000 1.0000 0.0000
vn -1.0000 0.0000 0.0000
vn 0.0000 -1.0000 0.0000
s 1
f 41//31 42//31 43//31 44//31
f 45//32 46//32 47//32 48//32
f 41//33 45//33 48//33 42//33
f 42//34 48//34 47//34 43//34
f 43//35 47//35 46//35 44//35
f 45//36 41//36 44//36 46//36
